<?xml version="1.0" encoding="utf-8"?>
<!-- Generator: Adobe Illustrator 16.0.0, SVG Export Plug-In . SVG Version: 6.00 Build 0)  -->
<!DOCTYPE svg PUBLIC "-//W3C//DTD SVG 1.1//EN" "http://www.w3.org/Graphics/SVG/1.1/DTD/svg11.dtd">
<svg version="1.1" id="Layer_1" xmlns="http://www.w3.org/2000/svg" xmlns:xlink="http://www.w3.org/1999/xlink" x="0px" y="0px"
	 width="744.525px" height="319.082px" viewBox="-44.525 0 744.525 319.082" enable-background="new -44.525 0 744.525 319.082"
	 xml:space="preserve">
<g>
	<path d="M29.937,33.628l39.415,115.729h0.42l37.314-115.729h52.203v168.344h-34.8V82.686h-0.42L82.766,201.972H54.255
		l-41.3-118.025h-0.42v118.241h-34.8V33.628H29.937L29.937,33.628z"/>
	<path d="M314.007,201.972L285.496,87.301h-0.42L256.98,201.972h-37.525L174.802,33.628h37.104l26.626,114.679h0.42l29.142-114.679
		h34.59l28.721,115.938h0.42l27.671-115.938h36.271l-45.283,168.344h-36.479H314.007L314.007,201.972z"/>
	<path d="M502.271,200.722c-7.969,3.351-16.148,5.029-24.322,5.029c-12.788,0-24.526-2.305-34.8-6.709
		c-10.274-4.404-19.077-10.693-25.996-18.447c-7.124-7.969-12.579-17.196-16.353-27.673c-3.775-10.693-5.66-22.017-5.66-34.385
		c0-12.578,1.885-24.316,5.66-35.01c3.772-10.693,9.224-20.127,16.353-28.092c7.129-7.969,15.723-14.258,25.996-18.867
		c10.272-4.614,21.802-6.919,34.8-6.919c8.6,0,16.982,1.255,25.162,3.983c8.174,2.726,15.513,6.495,22.012,11.529
		c6.499,5.029,11.948,11.323,16.144,18.657c4.188,7.339,6.919,15.933,7.754,25.366h-35.431c-2.305-9.434-6.5-16.563-12.788-21.172
		c-6.289-4.613-13.832-7.129-22.853-7.129c-8.384,0-15.513,1.675-21.172,4.819c-5.869,3.145-10.483,7.549-14.258,12.998
		c-3.561,5.449-6.289,11.534-7.964,18.448c-1.681,6.924-2.516,14.048-2.516,21.387c0,7.129,0.835,14.048,2.516,20.547
		c1.675,6.709,4.188,12.789,7.964,18.028c3.568,5.242,8.389,9.646,14.258,12.791c5.869,3.145,12.788,4.823,21.172,4.823
		c12.373,0,21.807-3.145,28.516-9.229c6.705-6.077,10.484-15.096,11.738-27.044h-37.314v-27.461h70.649v90.979h-23.48l-3.774-19.071
		C517.573,191.493,510.233,197.362,502.271,200.722z"/>
	<path fill="#00A1C6" d="M665.372,29.648l-65.83,176.103H572.92l65.616-176.103H665.372L665.372,29.648z"/>
	<rect x="-22.266" y="237.49" fill="none" width="700.006" height="46.483"/>
	<g enable-background="new    ">
		<path d="M-18.013,244.258h10.519c4.795,0,8.271,0.685,10.438,2.051c2.163,1.357,3.247,3.525,3.247,6.505
			c0,2.021-0.474,3.672-1.421,4.971s-2.207,2.07-3.779,2.334v0.233c2.14,0.479,3.688,1.367,4.635,2.677
			c0.946,1.317,1.421,3.057,1.421,5.225c0,3.086-1.113,5.488-3.341,7.217c-2.227,1.729-5.248,2.588-9.071,2.588h-12.647V244.258
			L-18.013,244.258z M-10.845,257.646h4.16c1.943,0,3.351-0.304,4.219-0.908c0.869-0.597,1.31-1.592,1.31-2.979
			c0-1.299-0.479-2.227-1.426-2.783c-0.947-0.565-2.446-0.85-4.492-0.85h-3.771V257.646z M-10.845,263.33v8.809h4.668
			c1.974,0,3.434-0.381,4.37-1.133c0.942-0.752,1.411-1.914,1.411-3.467c0-2.803-2.002-4.209-6.011-4.209H-10.845L-10.845,263.33z"
			/>
		<path d="M24.941,278.516c-4.16,0-7.412-1.143-9.756-3.438s-3.516-5.547-3.516-9.756c0-4.336,1.084-7.687,3.247-10.049
			c2.168-2.363,5.16-3.545,8.983-3.545c3.652,0,6.494,1.034,8.531,3.114c2.036,2.08,3.052,4.961,3.052,8.623v3.428h-16.67
			c0.078,2.003,0.674,3.564,1.782,4.688c1.107,1.133,2.666,1.689,4.668,1.689c1.558,0,3.026-0.156,4.414-0.488
			c1.392-0.322,2.837-0.84,4.351-1.543v5.449c-1.234,0.625-2.554,1.084-3.956,1.377C28.673,278.369,26.959,278.516,24.941,278.516z
			 M23.945,256.738c-1.494,0-2.666,0.479-3.511,1.426c-0.85,0.947-1.333,2.295-1.46,4.033h9.896
			c-0.033-1.738-0.487-3.086-1.366-4.033S25.439,256.738,23.945,256.738z"/>
		<path d="M59.248,270.381c0,2.656-0.923,4.668-2.764,6.055c-1.841,1.388-4.6,2.08-8.267,2.08c-1.88,0-3.481-0.127-4.811-0.381
			c-1.322-0.254-2.563-0.625-3.721-1.112v-5.83c1.313,0.614,2.788,1.133,4.429,1.553c1.642,0.41,3.086,0.625,4.336,0.625
			c2.555,0,3.833-0.742,3.833-2.228c0-0.547-0.166-1.006-0.508-1.348c-0.337-0.352-0.923-0.742-1.758-1.182
			c-0.83-0.439-1.938-0.947-3.33-1.533c-1.987-0.84-3.447-1.602-4.38-2.314c-0.933-0.712-1.611-1.522-2.031-2.44
			c-0.425-0.918-0.64-2.041-0.64-3.39c0-2.295,0.894-4.071,2.671-5.321c1.782-1.261,4.307-1.886,7.573-1.886
			c3.109,0,6.143,0.675,9.087,2.031l-2.129,5.088c-1.294-0.557-2.505-1.006-3.628-1.366c-1.128-0.353-2.275-0.527-3.447-0.527
			c-2.08,0-3.12,0.557-3.12,1.688c0,0.625,0.337,1.173,1.006,1.642c0.669,0.459,2.14,1.143,4.404,2.051
			c2.017,0.82,3.496,1.582,4.438,2.295c0.938,0.703,1.632,1.523,2.08,2.441C59.024,267.998,59.248,269.102,59.248,270.381z"/>
		<path d="M78.946,278.516c-3.037,0-5.42-1.094-7.148-3.301h-0.366c0.244,2.158,0.366,3.408,0.366,3.74v10.479h-7.052v-37.227h5.737
			l0.991,3.359h0.322c1.65-2.56,4.097-3.839,7.33-3.839c3.052,0,5.443,1.183,7.168,3.535c1.724,2.354,2.588,5.636,2.588,9.824
			c0,2.754-0.405,5.156-1.211,7.188c-0.812,2.03-1.963,3.584-3.457,4.647C82.721,277.987,80.964,278.516,78.946,278.516z
			 M76.861,257.363c-1.743,0-3.013,0.537-3.813,1.61c-0.802,1.074-1.217,2.843-1.25,5.304v0.762c0,2.773,0.415,4.766,1.239,5.967
			c0.821,1.201,2.129,1.808,3.917,1.808c3.159,0,4.741-2.607,4.741-7.813c0-2.549-0.391-4.453-1.167-5.723
			C79.747,257.998,78.526,257.363,76.861,257.363z"/>
		<path d="M118.199,265.088c0,4.209-1.113,7.5-3.33,9.873c-2.222,2.373-5.313,3.555-9.271,3.555c-2.48,0-4.668-0.537-6.563-1.621
			c-1.895-1.094-3.354-2.646-4.37-4.688c-1.016-2.031-1.527-4.404-1.527-7.119c0-4.219,1.104-7.5,3.306-9.844
			c2.207-2.344,5.303-3.516,9.297-3.516c2.48,0,4.668,0.536,6.563,1.62c1.895,1.074,3.354,2.627,4.369,4.648
			C117.687,260.01,118.199,262.373,118.199,265.088z M100.328,265.088c0,2.56,0.42,4.492,1.26,5.801
			c0.841,1.31,2.207,1.974,4.103,1.974c1.88,0,3.231-0.654,4.058-1.963c0.825-1.3,1.235-3.232,1.235-5.812
			c0-2.559-0.415-4.473-1.245-5.752c-0.835-1.279-2.197-1.924-4.092-1.924c-1.88,0-3.237,0.635-4.072,1.904
			C100.743,260.596,100.328,262.52,100.328,265.088z"/>
		<path d="M130.797,264.004l3.071-3.936l7.236-7.853h7.955l-10.265,11.211l10.89,14.629h-8.141l-7.44-10.469l-3.032,2.422v8.047
			h-7.051v-35.967h7.051v16.045l-0.366,5.869L130.797,264.004L130.797,264.004z"/>
		<path d="M165.079,278.516c-4.16,0-7.412-1.143-9.756-3.438s-3.511-5.547-3.511-9.756c0-4.336,1.079-7.687,3.247-10.049
			c2.163-2.363,5.156-3.545,8.979-3.545c3.652,0,6.494,1.034,8.53,3.114s3.052,4.961,3.052,8.623v3.428h-16.67
			c0.078,2.003,0.674,3.564,1.782,4.688c1.108,1.133,2.666,1.689,4.673,1.689c1.553,0,3.027-0.156,4.414-0.488
			c1.387-0.322,2.832-0.84,4.346-1.543v5.449c-1.234,0.625-2.554,1.084-3.955,1.377
			C168.811,278.369,167.097,278.516,165.079,278.516z M164.083,256.738c-1.494,0-2.666,0.479-3.511,1.426
			c-0.85,0.947-1.333,2.295-1.46,4.033h9.897c-0.034-1.738-0.483-3.086-1.367-4.033
			C166.765,257.217,165.582,256.738,164.083,256.738z"/>
		<path d="M208.562,249.736c-2.695,0-4.78,1.016-6.26,3.047c-1.479,2.021-2.223,4.844-2.223,8.467
			c0,7.539,2.827,11.309,8.481,11.309c2.373,0,5.249-0.596,8.628-1.786v6.016c-2.778,1.152-5.874,1.729-9.297,1.729
			c-4.917,0-8.678-1.483-11.279-4.473c-2.607-2.979-3.906-7.256-3.906-12.842c0-3.506,0.641-6.592,1.919-9.229
			c1.279-2.646,3.115-4.678,5.514-6.084c2.397-1.405,5.204-2.119,8.428-2.119c3.281,0,6.577,0.802,9.893,2.384l-2.313,5.83
			c-1.26-0.605-2.534-1.123-3.813-1.572C211.054,249.962,209.797,249.736,208.562,249.736z"/>
		<path d="M247.312,265.088c0,4.209-1.113,7.5-3.33,9.873c-2.222,2.373-5.313,3.555-9.272,3.555c-2.479,0-4.668-0.537-6.563-1.621
			c-1.899-1.094-3.354-2.646-4.37-4.688c-1.016-2.031-1.528-4.404-1.528-7.119c0-4.219,1.104-7.5,3.307-9.844
			c2.207-2.344,5.303-3.516,9.297-3.516c2.479,0,4.668,0.536,6.563,1.62c1.896,1.074,3.351,2.627,4.37,4.648
			C246.8,260.01,247.312,262.373,247.312,265.088z M229.44,265.088c0,2.56,0.42,4.492,1.26,5.801c0.84,1.31,2.207,1.974,4.103,1.974
			c1.88,0,3.231-0.654,4.058-1.963c0.825-1.3,1.235-3.232,1.235-5.812c0-2.559-0.415-4.473-1.245-5.752
			c-0.835-1.279-2.197-1.924-4.092-1.924c-1.886,0-3.237,0.635-4.072,1.904C229.855,260.596,229.44,262.52,229.44,265.088z"/>
		<path d="M276.994,278.057h-7.056v-15.098c0-1.865-0.327-3.262-0.991-4.189c-0.664-0.938-1.719-1.405-3.169-1.405
			c-1.973,0-3.398,0.664-4.277,1.981c-0.879,1.318-1.317,3.496-1.317,6.553v12.158h-7.052v-25.84h5.387l0.952,3.301h0.391
			c0.786-1.25,1.87-2.188,3.247-2.832c1.382-0.635,2.949-0.957,4.707-0.957c3.003,0,5.283,0.812,6.841,2.441
			c1.558,1.621,2.334,3.965,2.334,7.031v16.854L276.994,278.057L276.994,278.057z"/>
		<path d="M295.14,272.9c1.235,0,2.715-0.265,4.438-0.812v5.254c-1.758,0.781-3.917,1.172-6.47,1.172
			c-2.822,0-4.878-0.713-6.162-2.139c-1.289-1.426-1.934-3.563-1.934-6.406v-12.461h-3.374v-2.987l3.887-2.354l2.031-5.459h4.507
			v5.508h7.236v5.293h-7.236v12.461c0,0.996,0.283,1.738,0.845,2.218C293.471,272.666,294.216,272.9,295.14,272.9z"/>
		<path d="M316.502,278.516c-4.159,0-7.417-1.143-9.756-3.438c-2.344-2.295-3.516-5.547-3.516-9.756
			c0-4.336,1.084-7.687,3.247-10.049c2.168-2.363,5.161-3.545,8.983-3.545c3.652,0,6.494,1.034,8.53,3.114s3.052,4.961,3.052,8.623
			v3.428h-16.67c0.078,2.003,0.669,3.564,1.782,4.688c1.108,1.133,2.666,1.689,4.668,1.689c1.559,0,3.027-0.156,4.414-0.488
			c1.393-0.322,2.837-0.84,4.352-1.543v5.449c-1.235,0.625-2.555,1.084-3.955,1.377
			C320.232,278.369,318.519,278.516,316.502,278.516z M315.506,256.738c-1.493,0-2.666,0.479-3.511,1.426
			c-0.85,0.947-1.333,2.295-1.46,4.033h9.897c-0.034-1.738-0.488-3.086-1.367-4.033S317,256.738,315.506,256.738z"/>
		<path d="M356.634,278.057h-7.052v-15.098c0-1.865-0.332-3.262-0.996-4.189c-0.664-0.938-1.719-1.405-3.169-1.405
			c-1.973,0-3.397,0.664-4.271,1.981c-0.879,1.318-1.318,3.496-1.318,6.553v12.158h-7.051v-25.84h5.386l0.947,3.301h0.391
			c0.786-1.25,1.87-2.188,3.247-2.832c1.382-0.635,2.949-0.957,4.707-0.957c3.003,0,5.283,0.812,6.841,2.441
			c1.559,1.621,2.334,3.965,2.334,7.031v16.854L356.634,278.057L356.634,278.057z"/>
		<path d="M374.778,272.9c1.236,0,2.715-0.265,4.439-0.812v5.254c-1.759,0.781-3.912,1.172-6.472,1.172
			c-2.821,0-4.877-0.713-6.162-2.139c-1.289-1.426-1.929-3.563-1.929-6.406v-12.461h-3.379v-2.987l3.887-2.354l2.032-5.459h4.512
			v5.508h7.236v5.293h-7.236v12.461c0,0.996,0.277,1.738,0.841,2.218C373.108,272.666,373.856,272.9,374.778,272.9z"/>
		<path d="M417.987,278.057l-2.451-8.047h-12.32l-2.45,8.047h-7.72l11.929-33.936h8.761l11.978,33.936H417.987z M413.827,264.004
			c-2.266-7.295-3.54-11.416-3.828-12.373c-0.283-0.957-0.487-1.709-0.609-2.266c-0.508,1.973-1.963,6.854-4.37,14.639H413.827z"/>
		<path d="M429.96,278.057v-33.799h7.168v33.799H429.96L429.96,278.057z"/>
		<path d="M477.886,268.672c0,3.047-1.101,5.459-3.298,7.217c-2.196,1.758-5.249,2.627-9.165,2.627c-3.604,0-6.797-0.674-9.569-2.03
			v-6.66c2.28,1.016,4.209,1.737,5.791,2.158c1.577,0.409,3.021,0.614,4.336,0.614c1.572,0,2.778-0.293,3.618-0.897
			c0.835-0.597,1.26-1.494,1.26-2.676c0-0.664-0.186-1.261-0.557-1.777c-0.371-0.508-0.913-1.006-1.632-1.484
			c-0.713-0.479-2.173-1.239-4.38-2.295c-2.064-0.967-3.612-1.895-4.647-2.793c-1.03-0.897-1.855-1.934-2.472-3.125
			c-0.614-1.182-0.923-2.567-0.923-4.16c0-2.987,1.012-5.342,3.037-7.051c2.026-1.709,4.829-2.559,8.403-2.559
			c1.758,0,3.433,0.205,5.029,0.614c1.592,0.42,3.262,1.007,5.005,1.759l-2.314,5.575c-1.802-0.741-3.296-1.26-4.473-1.553
			s-2.339-0.438-3.478-0.438c-1.356,0-2.396,0.321-3.12,0.946c-0.728,0.636-1.089,1.455-1.089,2.48c0,0.625,0.146,1.182,0.439,1.65
			c0.293,0.468,0.757,0.928,1.396,1.366c0.64,0.439,2.153,1.23,4.546,2.363c3.159,1.514,5.322,3.027,6.494,4.541
			C477.3,264.609,477.886,266.465,477.886,268.672z"/>
		<path d="M506.942,265.088c0,4.209-1.107,7.5-3.33,9.873c-2.217,2.373-5.307,3.555-9.268,3.555c-2.48,0-4.673-0.537-6.566-1.621
			c-1.895-1.094-3.35-2.646-4.365-4.688c-1.021-2.031-1.528-4.404-1.528-7.119c0-4.219,1.104-7.5,3.307-9.844
			c2.201-2.344,5.303-3.516,9.291-3.516c2.479,0,4.674,0.536,6.568,1.62c1.895,1.074,3.35,2.627,4.364,4.648
			C506.435,260.01,506.942,262.373,506.942,265.088z M489.071,265.088c0,2.56,0.42,4.492,1.26,5.801
			c0.847,1.318,2.213,1.974,4.107,1.974c1.879,0,3.231-0.654,4.057-1.963c0.826-1.3,1.236-3.232,1.236-5.812
			c0-2.559-0.416-4.473-1.25-5.752c-0.83-1.279-2.193-1.924-4.092-1.924c-1.881,0-3.238,0.635-4.068,1.904
			C489.491,260.596,489.071,262.52,489.071,265.088z"/>
		<path d="M519.819,278.057h-7.051V242.09h7.051V278.057z"/>
		<path d="M545.527,278.057l-0.947-3.301h-0.371c-0.757,1.201-1.825,2.129-3.213,2.783c-1.387,0.654-2.969,0.977-4.741,0.977
			c-3.031,0-5.321-0.811-6.864-2.432c-1.538-1.631-2.311-3.965-2.311-7.021v-16.846h7.051v15.088c0,1.865,0.332,3.263,0.996,4.199
			c0.659,0.928,1.72,1.396,3.164,1.396c1.974,0,3.398-0.654,4.277-1.974s1.317-3.506,1.317-6.553v-12.168h7.052v25.85
			L545.527,278.057L545.527,278.057z"/>
		<path d="M569.224,272.9c1.229,0,2.71-0.265,4.438-0.812v5.254c-1.758,0.781-3.916,1.172-6.475,1.172
			c-2.817,0-4.873-0.713-6.162-2.139c-1.284-1.426-1.929-3.563-1.929-6.406v-12.461h-3.374v-2.987l3.882-2.354l2.036-5.459h4.507
			v5.508h7.236v5.293h-7.236v12.461c0,0.996,0.283,1.738,0.845,2.218C567.554,272.666,568.296,272.9,569.224,272.9z"/>
		<path d="M578.584,245.527c0-2.295,1.279-3.438,3.839-3.438c2.559,0,3.838,1.144,3.838,3.438c0,1.104-0.322,1.953-0.963,2.559
			c-0.64,0.606-1.597,0.908-2.875,0.908C579.863,248.994,578.584,247.842,578.584,245.527z M585.938,278.057h-7.052v-25.84h7.052
			V278.057z"/>
		<path d="M616.822,265.088c0,4.209-1.108,7.5-3.33,9.873c-2.217,2.373-5.308,3.555-9.269,3.555c-2.484,0-4.672-0.537-6.566-1.621
			c-1.895-1.094-3.35-2.646-4.371-4.688c-1.016-2.031-1.522-4.404-1.522-7.119c0-4.219,1.1-7.5,3.307-9.844
			c2.201-2.344,5.303-3.516,9.291-3.516c2.479,0,4.669,0.536,6.563,1.62c1.897,1.074,3.354,2.627,4.369,4.648
			C616.314,260.01,616.822,262.373,616.822,265.088z M598.95,265.088c0,2.56,0.42,4.492,1.26,5.801
			c0.84,1.318,2.207,1.974,4.107,1.974c1.879,0,3.232-0.654,4.052-1.963c0.826-1.3,1.24-3.232,1.24-5.812
			c0-2.559-0.414-4.473-1.25-5.752c-0.829-1.279-2.192-1.924-4.091-1.924c-1.881,0-3.238,0.635-4.068,1.904
			C599.37,260.596,598.95,262.52,598.95,265.088z"/>
		<path d="M646.505,278.057h-7.051v-15.098c0-1.865-0.332-3.262-0.991-4.189c-0.663-0.938-1.719-1.405-3.169-1.405
			c-1.973,0-3.397,0.664-4.276,1.981c-0.879,1.318-1.318,3.496-1.318,6.553v12.158h-7.051v-25.84h5.386l0.947,3.301h0.396
			c0.786-1.25,1.865-2.188,3.247-2.832c1.377-0.635,2.944-0.957,4.702-0.957c3.008,0,5.288,0.812,6.847,2.441
			c1.558,1.621,2.334,3.965,2.334,7.031v16.855H646.505z"/>
		<path d="M671.798,270.381c0,2.656-0.923,4.668-2.764,6.055c-1.841,1.388-4.6,2.08-8.267,2.08c-1.88,0-3.481-0.127-4.811-0.381
			c-1.323-0.254-2.563-0.625-3.721-1.112v-5.83c1.309,0.614,2.783,1.133,4.424,1.553c1.646,0.41,3.091,0.625,4.336,0.625
			c2.56,0,3.838-0.742,3.838-2.228c0-0.547-0.171-1.006-0.508-1.348c-0.342-0.352-0.923-0.742-1.758-1.182
			c-0.83-0.439-1.943-0.947-3.33-1.533c-1.987-0.84-3.447-1.602-4.38-2.314c-0.934-0.712-1.611-1.522-2.036-2.44
			c-0.42-0.918-0.635-2.041-0.635-3.39c0-2.295,0.889-4.071,2.671-5.321c1.777-1.261,4.302-1.886,7.573-1.886
			c3.109,0,6.138,0.675,9.081,2.031l-2.123,5.088c-1.295-0.557-2.506-1.006-3.634-1.366c-1.122-0.353-2.271-0.527-3.441-0.527
			c-2.08,0-3.12,0.557-3.12,1.688c0,0.625,0.332,1.173,1.006,1.642c0.669,0.459,2.139,1.143,4.404,2.051
			c2.017,0.82,3.496,1.582,4.438,2.295c0.938,0.703,1.631,1.523,2.08,2.441C671.568,267.998,671.798,269.102,671.798,270.381z"/>
	</g>
</g>
</svg>
