<?xml version="1.0" encoding="UTF-8"?>
<svg version="1.1" xmlns="http://www.w3.org/2000/svg" width="1080" height="1080">
<path d="M0 0 C356.4 0 712.8 0 1080 0 C1080 356.4 1080 712.8 1080 1080 C723.6 1080 367.2 1080 0 1080 C0 723.6 0 367.2 0 0 Z " fill="#FEFEFE" transform="translate(0,0)"/>
<path d="M0 0 C1.20039917 0.00966797 1.20039917 0.00966797 2.42504883 0.01953125 C11.14960607 0.28986714 16.11256113 3.06929159 22.0625 9.375 C27.18185237 15.76528208 28.76897389 21.30471269 28.53515625 29.4375 C27.65267837 37.21123776 24.28073294 44.4775444 18.1875 49.5 C10.09830129 54.90193948 1.71402094 55.77365443 -7.8125 54.5 C-15.85046328 52.09918728 -20.70155482 47.45806889 -25.0625 40.5078125 C-28.82037981 33.38349869 -29.28655925 25.38409493 -26.96484375 17.69140625 C-21.8744871 6.35457804 -12.32998477 -0.10286774 0 0 Z " fill="#08B3CE" transform="translate(351.8125,512.5)"/>
<path d="M0 0 C0.33 0.66 0.66 1.32 1 2 C0.01 3.485 0.01 3.485 -1 5 C-1.99 5 -2.98 5 -4 5 C-4 10.28 -4 15.56 -4 21 C-2.35 20.01 -0.7 19.02 1 18 C0.1342843 20.66929007 -0.72191238 22.67741836 -2.5625 24.8125 C-6.35055718 26.65796376 -9.87701542 26.77168161 -14 26 C-17.65522863 23.48703032 -18.7499472 21.76405021 -20.125 17.5625 C-19.95439676 12.70030775 -18.37918066 11.37918066 -15 8 C-14.34 8.33 -13.68 8.66 -13 9 C-13.33 9.33 -13.66 9.66 -14 10 C-14.07179964 11.51928038 -14.08392007 13.04167482 -14.0625 14.5625 C-14.05347656 15.38878906 -14.04445313 16.21507812 -14.03515625 17.06640625 C-14.02355469 17.70449219 -14.01195312 18.34257813 -14 19 C-13.34 19.33 -12.68 19.66 -12 20 C-11.93941406 19.07316406 -11.87882812 18.14632812 -11.81640625 17.19140625 C-11.73261719 15.99386719 -11.64882813 14.79632812 -11.5625 13.5625 C-11.48128906 12.36753906 -11.40007812 11.17257812 -11.31640625 9.94140625 C-11 7 -11 7 -10 6 C-11.98 6 -13.96 6 -16 6 C-16.33 6.66 -16.66 7.32 -17 8 C-17.66 8 -18.32 8 -19 8 C-18.625 5.0625 -18.625 5.0625 -18 2 C-14.828262 0.414131 -11.36486178 0.62133555 -7.875 0.4375 C-7.12089844 0.39431641 -6.36679687 0.35113281 -5.58984375 0.30664062 C-3.72678112 0.2005168 -1.86341476 0.09974999 0 0 Z " fill="#E4F6F9" transform="translate(373,526)"/>
<path d="M0 0 C2.64 0 5.28 0 8 0 C8.05807043 3.10408807 8.09361914 6.2080364 8.125 9.3125 C8.14175781 10.19357422 8.15851563 11.07464844 8.17578125 11.98242188 C8.18222656 12.82998047 8.18867188 13.67753906 8.1953125 14.55078125 C8.20578613 15.33106689 8.21625977 16.11135254 8.22705078 16.9152832 C8 19 8 19 6 22 C7.32 22 8.64 22 10 22 C10 14.74 10 7.48 10 0 C10.33 0 10.66 0 11 0 C11 3.3 11 6.6 11 10 C12.32 10 13.64 10 15 10 C14.9175 8.906875 14.835 7.81375 14.75 6.6875 C15 3 15 3 16.875 1.0625 C19 0 19 0 21 0 C20.98952637 0.62567871 20.97905273 1.25135742 20.96826172 1.89599609 C20.92676809 4.7222901 20.90069527 7.54852011 20.875 10.375 C20.85824219 11.35984375 20.84148437 12.3446875 20.82421875 13.359375 C20.81777344 14.30039062 20.81132812 15.24140625 20.8046875 16.2109375 C20.79421387 17.08024902 20.78374023 17.94956055 20.77294922 18.84521484 C20.79404891 21.21345939 20.79404891 21.21345939 23 23 C20.6875 24.125 20.6875 24.125 18 25 C17.01 24.34 16.02 23.68 15 23 C14.70703125 20.6171875 14.70703125 20.6171875 14.8125 17.875 C14.83957031 16.96492187 14.86664063 16.05484375 14.89453125 15.1171875 C14.92933594 14.41851563 14.96414063 13.71984375 15 13 C13.68 13 12.36 13 11 13 C11 16.63 11 20.26 11 24 C7.78548731 25.60725635 4.56387464 25.05748185 1 25 C1.66 21.37 2.32 17.74 3 14 C1.68 14 0.36 14 -1 14 C-0.67 12.68 -0.34 11.36 0 10 C0.99 10 1.98 10 3 10 C3.2165625 8.824375 3.2165625 8.824375 3.4375 7.625 C4 5 4 5 5 3 C3.35 3 1.7 3 0 3 C-0.33 3.66 -0.66 4.32 -1 5 C-0.67 3.35 -0.34 1.7 0 0 Z " fill="#EEFAFB" transform="translate(330,527)"/>
<path d="M0 0 C0.33 0.66 0.66 1.32 1 2 C0.01 3.485 0.01 3.485 -1 5 C-1.99 5 -2.98 5 -4 5 C-4 10.28 -4 15.56 -4 21 C-3.34 21.33 -2.68 21.66 -2 22 C-4.97 22 -7.94 22 -11 22 C-10.34 21.34 -9.68 20.68 -9 20 C-8.69400937 17.43083343 -8.48912913 14.95241616 -8.375 12.375 C-8.31699219 11.31539062 -8.31699219 11.31539062 -8.2578125 10.234375 C-8.16352276 8.49001476 -8.08067109 6.74504309 -8 5 C-9.299375 5.12375 -10.59875 5.2475 -11.9375 5.375 C-12.66839844 5.44460938 -13.39929688 5.51421875 -14.15234375 5.5859375 C-14.76207031 5.72257813 -15.37179687 5.85921875 -16 6 C-16.33 6.66 -16.66 7.32 -17 8 C-17.66 8 -18.32 8 -19 8 C-18.625 5.0625 -18.625 5.0625 -18 2 C-14.828262 0.414131 -11.36486178 0.62133555 -7.875 0.4375 C-7.12089844 0.39431641 -6.36679687 0.35113281 -5.58984375 0.30664062 C-3.72678112 0.2005168 -1.86341476 0.09974999 0 0 Z " fill="#D9F3F7" transform="translate(373,526)"/>
<path d="M0 0 C1.98 0 3.96 0 6 0 C5.34 0.66 4.68 1.32 4 2 C3.53513282 5.12196336 3.53513282 5.12196336 3.375 8.625 C3.30023438 9.81351563 3.22546875 11.00203125 3.1484375 12.2265625 C3.09945313 13.14179687 3.05046875 14.05703125 3 15 C2.01 15 1.02 15 0 15 C-1 14 -1 14 -1.0625 11.96875 C-1.02083333 10.32291667 -0.97916667 8.67708333 -0.9375 7.03125 C-0.76775055 5.00390764 -0.76775055 5.00390764 -2 4 C-1.34 2.68 -0.68 1.36 0 0 Z " fill="#34C0D7" transform="translate(359,531)"/>
<path d="M0 0 C0.66 0 1.32 0 2 0 C2 4.62 2 9.24 2 14 C1.01 14.33 0.02 14.66 -1 15 C-1.02685412 12.68756208 -1.04632841 10.3750373 -1.0625 8.0625 C-1.07410156 6.77472656 -1.08570313 5.48695313 -1.09765625 4.16015625 C-1 1 -1 1 0 0 Z " fill="#FBFDFE" transform="translate(363,532)"/>
<path d="M0 0 C0.33 0 0.66 0 1 0 C1 5.61 1 11.22 1 17 C-0.98 17 -2.96 17 -5 17 C-3.68 16.34 -2.36 15.68 -1 15 C-1.01160156 14.00097656 -1.02320313 13.00195312 -1.03515625 11.97265625 C-1.04869141 10.03712891 -1.04869141 10.03712891 -1.0625 8.0625 C-1.07410156 6.77472656 -1.08570313 5.48695313 -1.09765625 4.16015625 C-1 1 -1 1 0 0 Z " fill="#03B2CD" transform="translate(367,531)"/>
<path d="M0 0 C0.33 0 0.66 0 1 0 C1 7.26 1 14.52 1 22 C-0.98 22.33 -2.96 22.66 -5 23 C-3.625 21 -3.625 21 -2 19 C-1.34 19 -0.68 19 0 19 C0 12.73 0 6.46 0 0 Z " fill="#27BCD4" transform="translate(339,527)"/>
<path d="M0 0 C0.33 0 0.66 0 1 0 C1 3.63 1 7.26 1 11 C0.01 10.34 -0.98 9.68 -2 9 C-2.3125 5.5 -2.3125 5.5 -2 2 C-1.34 1.34 -0.68 0.68 0 0 Z " fill="#02B1CD" transform="translate(360,536)"/>
</svg>
